<svg width="0" height="0" class="hidden">
  <symbol xmlns="http://www.w3.org/2000/svg" xmlns:xlink="http://www.w3.org/1999/xlink" aria-hidden="true" role="img" preserveAspectRatio="xMidYMid meet" viewBox="0 0 24 24" id="instagram">
    <g fill="none">
      <path fill-rule="evenodd" clip-rule="evenodd" d="M7.465 1.066C8.638 1.012 9.012 1 12 1c2.988 0 3.362.013 4.534.066c1.172.053 1.972.24 2.672.511c.733.277 1.398.71 1.948 1.27c.56.549.992 1.213 1.268 1.947c.272.7.458 1.5.512 2.67C22.988 8.639 23 9.013 23 12c0 2.988-.013 3.362-.066 4.535c-.053 1.17-.24 1.97-.512 2.67a5.396 5.396 0 0 1-1.268 1.949c-.55.56-1.215.992-1.948 1.268c-.7.272-1.5.458-2.67.512c-1.174.054-1.548.066-4.536.066c-2.988 0-3.362-.013-4.535-.066c-1.17-.053-1.97-.24-2.67-.512a5.397 5.397 0 0 1-1.949-1.268a5.392 5.392 0 0 1-1.269-1.948c-.271-.7-.457-1.5-.511-2.67C1.012 15.361 1 14.987 1 12c0-2.988.013-3.362.066-4.534c.053-1.172.24-1.972.511-2.672a5.396 5.396 0 0 1 1.27-1.948a5.392 5.392 0 0 1 1.947-1.269c.7-.271 1.5-.457 2.67-.511zm8.98 1.98c-1.16-.053-1.508-.064-4.445-.064c-2.937 0-3.285.011-4.445.064c-1.073.049-1.655.228-2.043.379c-.513.2-.88.437-1.265.822a3.412 3.412 0 0 0-.822 1.265c-.151.388-.33.97-.379 2.043c-.053 1.16-.064 1.508-.064 4.445c0 2.937.011 3.285.064 4.445c.049 1.073.228 1.655.379 2.043c.176.477.457.91.822 1.265c.355.365.788.646 1.265.822c.388.151.97.33 2.043.379c1.16.053 1.507.064 4.445.064c2.938 0 3.285-.011 4.445-.064c1.073-.049 1.655-.228 2.043-.379c.513-.2.88-.437 1.265-.822c.365-.355.646-.788.822-1.265c.151-.388.33-.97.379-2.043c.053-1.16.064-1.508.064-4.445c0-2.937-.011-3.285-.064-4.445c-.049-1.073-.228-1.655-.379-2.043c-.2-.513-.437-.88-.822-1.265a3.413 3.413 0 0 0-1.265-.822c-.388-.151-.97-.33-2.043-.379zm-5.85 12.345a3.669 3.669 0 0 0 4-5.986a3.67 3.67 0 1 0-4 5.986zM8.002 8.002a5.654 5.654 0 1 1 7.996 7.996a5.654 5.654 0 0 1-7.996-7.996zm10.906-.814a1.337 1.337 0 1 0-1.89-1.89a1.337 1.337 0 0 0 1.89 1.89z" fill="currentColor"></path>
    </g>
  </symbol>
  <symbol xmlns="http://www.w3.org/2000/svg" xmlns:xlink="http://www.w3.org/1999/xlink" aria-hidden="true" role="img" preserveAspectRatio="xMidYMid meet" viewBox="0 0 24 24" id="twitter">
    <g fill="none">
      <path d="M23.643 4.937c-.835.37-1.732.62-2.675.733a4.67 4.67 0 0 0 2.048-2.578a9.3 9.3 0 0 1-2.958 1.13a4.66 4.66 0 0 0-7.938 4.25a13.229 13.229 0 0 1-9.602-4.868c-.4.69-.63 1.49-.63 2.342A4.66 4.66 0 0 0 3.96 9.824a4.647 4.647 0 0 1-2.11-.583v.06a4.66 4.66 0 0 0 3.737 4.568a4.692 4.692 0 0 1-2.104.08a4.661 4.661 0 0 0 4.352 3.234a9.348 9.348 0 0 1-5.786 1.995a9.5 9.5 0 0 1-1.112-.065a13.175 13.175 0 0 0 7.14 2.093c8.57 0 13.255-7.098 13.255-13.254c0-.2-.005-.402-.014-.602a9.47 9.47 0 0 0 2.323-2.41l.002-.003z" fill="currentColor"></path>
    </g>
  </symbol>
  <symbol xmlns="http://www.w3.org/2000/svg" viewBox="0 0 454.3 327.94" id="logo">

    <defs>
    </defs>
          <g id="shadow">
        <path d="M175.05,61.74q8.12-1,9.87,5.87-.42,54.33-2.9,58.27L177,128.77l-41.73,10.61q-.36,35.15-1.44,35.42l-15.74,4-1.28-.75L121,75.53ZM137,88.68l-1,33.23,27.49-7q4.9-1.24,4.69-9.42l-.49-23.56L166,81.31Z"></path>
        <path d="M208.65,53.2l.12.46q-2.4,96.35-3.37,102.9l-16.33,4.15-1.26-.75,4.51-102.61Z"></path>
        <path d="M224.66,49.2l15.73-4q1.79-.44,10.46,18.78l5.24,10.2.47-.13q-.29-1.14,16.65-37.22l17.68-4.49.13.53L265.08,91.21l22.18,44-.41.61-16.2,4.13q-1.08.27-11.12-21.22c-2.33-4.65-3.76-6.91-4.3-6.75q-14.53,32.9-17,36.22l-16.67,4.25-.25-1,25.78-56.7Z"></path>
        <path d="M358.11,15.17l1.26.75q-.22,16.23-1,16.39L320,42.05l-.44,25.23,36.89-9.38,1.19.77q-.17,16.2-1,16.39l-37.83,9.65-.72,25.86,36.84-9.36,1.24.68q-.42,16.39-2,16.75l-53,13.51-.65-.33-.47.11,4.11-103.07Z"></path>
        <path d="M388.33,7.69l.59.36.54-.15-2.37,85.18,36.76-9.35,1.26.76q-.23,16.23-1,16.39l-53.43,13.59-1.26-.75,3.29-102.09Z"></path>
        <path d="M69.29,210.77c4.85-.09,7.71,1.62,8.61,5.11l.37,1.48q-1.47,78.58-3,85-3.66,10.37-14.94,13.25L11.75,327.94l-1.26-.75L13.73,225ZM30.14,238,28.26,306.5l26.54-6.75q6.26-1.58,4.41-15.28.74-1.34,1.69-53.24l-1.73-.63Z"></path>
        <path d="M109.82,200.46l.12.47q-2.39,96.35-3.37,102.89L90.24,308,89,307.23l4.52-102.62Z"></path>
        <path d="M131.39,195l54.5-13.87.66.34.47-.13q-.44,16.84-1.38,17.1l-46.23,11.77q-2.08.51-1.93,35.54L136.23,278l1.74.63,25.53-6.5q5.12-1.31,3.77-16.12c.64-.18.77-1.09.38-2.75l-16.26,4.14-1.19-.71c0-10.82.34-16.33,1-16.5l32.94-8.37.58.35.48-.13q-.37,43.23-3.08,45.33-3.49,8.19-15,11.11l-33.93,8.68q-8.75,2.22-13.18-4.52l-1.08-2.3q1.8-81.24,3.09-86.57Q126.28,196.28,131.39,195Z"></path>
        <path d="M218,172.93l.12.46q-2.38,96.38-3.37,102.9l-16.33,4.15-1.26-.75,4.5-102.6Z"></path>
        <path d="M230,170.39l77.15-19.63,1.27.75q-.25,16.17-1.13,16.4l-31.39,8L273,261.46l-16.22,4.15-.65-.33-.47.12,3.43-85.24-28.93,7.38c-.68.17-1.14-.24-1.39-1.22Q228.89,171.82,230,170.39Z"></path>
        <path d="M346.69,140.4l15.18-3.86q1.74-.43,15.68,49.26,2.65,6.48,13.42,44.59l-1.24,1.37L319.64,249.6l-.66-.34-.46.12Zm8.13,30.86-13.5,55.59,27.89-7.09-13.74-48.18-.11-.47Z"></path>
        <path d="M417.51,122.38l.59.35.54-.13-2.37,85.15L453,198.39l1.27.75q-.26,16.23-1,16.4l-53.43,13.59-1.27-.75,3.29-102.08Z"></path>
      </g>
      <g id="jaune">
        <path d="M166.64,56.47q8.12-1,9.87,5.86-.42,54.35-2.89,58.27l-5.07,2.9-41.74,10.6q-.34,35.16-1.43,35.43l-15.72,4-1.27-.75,4.26-102.54ZM128.56,83.41l-1,33.23,27.49-7q4.9-1.25,4.69-9.43l-.53-23.56L157.5,76Z"></path>
        <path d="M200.24,47.92l.12.47Q198,144.74,197,151.28l-16.32,4.16-1.28-.74,4.53-102.61Z"></path>
        <path d="M216.25,43.92l15.73-4q1.74-.45,10.5,18.79l5.24,10.14.47-.11q-.28-1.16,16.65-37.22L282.52,27l.13.54L256.71,85.91l22.18,44-.41.61-16.2,4.12q-1.08.27-11.13-21.21c-2.32-4.65-3.76-6.92-4.29-6.75q-14.54,32.88-17,36.22l-16.65,4.24-.26-1,25.79-56.72Z"></path>
        <path d="M349.7,9.89l1.26.75q-.22,16.23-1,16.4l-38.31,9.78-.44,25.23,36.89-9.38,1.16.77q-.12,16.22-1,16.4l-37.83,9.64-.75,25.88L346.51,96l1.25.69q-.42,16.34-2,16.75l-53,13.5-.65-.33-.48.12,4.12-103.09Z"></path>
        <path d="M379.92,2.41l.59.36.54-.14L378.68,87.8l36.76-9.34,1.26.74q-.24,16.23-1,16.4l-53.43,13.58-1.26-.75L364.26,6.35Z"></path>
        <path d="M60.87,205.49q7.26-.13,8.6,5.11l.37,1.48q-1.45,78.6-3,85-3.64,10.37-14.93,13.24L3.34,322.67,2,321.91,5.27,219.69ZM21.71,232.7l-1.93,68.53,26.54-6.75q6.26-1.59,4.41-15.29.74-1.33,1.7-53.24l-1.74-.63Z"></path>
        <path d="M101.37,195.21l.12.47Q99.11,292,98.12,298.57l-16.34,4.15L80.52,302,85,199.37Z"></path>
        <path d="M123,189.69l54.51-13.87.66.34.46-.12q-.43,16.86-1.37,17.1L131,204.9q-2.08.53-1.93,35.54l-1.25,32.23,1.73.63,25.54-6.49q5.1-1.31,3.77-16.14c.67-.16.8-1.08.38-2.74L143,252.11l-1.18-.7q0-16.26,1-16.51l32.94-8.38.58.36.48-.12q-.37,43.23-3.08,45.32-3.49,8.19-15,11.11l-33.93,8.68q-8.75,2.2-13.18-4.52l-1.08-2.45q1.8-81.24,3.09-86.58C116.46,193.43,119.57,190.55,123,189.69Z"></path>
        <path d="M209.6,167.66l.12.46q-2.4,96.34-3.37,102.89L190,275.17l-1.26-.75,4.51-102.61Z"></path>
        <path d="M221.55,165.11l77.15-19.63,1.26.76q-.24,16.15-1.12,16.39l-31.38,8-2.84,85.58-16.2,4.12-.65-.33-.47.11,3.43-85.23-28.93,7.38c-.67.16-1.13-.24-1.38-1.23Q220.48,166.55,221.55,165.11Z"></path>
        <path d="M338.27,135.13l15.19-3.86q1.76-.44,15.68,49.25,2.66,6.48,13.42,44.6l-1.22,1.37-70.09,17.84-.66-.33-.47.11ZM346.41,166l-13.5,55.59,27.89-7.08-13.74-48.22-.12-.48Z"></path>
        <path d="M409.11,117.09l.58.36.54-.15-2.37,85.18,36.75-9.34,1.28.74q-.24,16.25-1,16.44l-53.43,13.59-1.27-.75,3.29-102.09Z"></path>
      </g>
  </symbol>
  <symbol xmlns="http://www.w3.org/2000/svg" xmlns:xlink="http://www.w3.org/1999/xlink" aria-hidden="true" role="img" preserveAspectRatio="xMidYMid meet" viewBox="0 0 24 24" id="facebook">
    <g fill="none">
      <path fill-rule="evenodd" clip-rule="evenodd" d="M0 12.067C0 18.033 4.333 22.994 10 24v-8.667H7V12h3V9.333c0-3 1.933-4.666 4.667-4.666c.866 0 1.8.133 2.666.266V8H15.8c-1.467 0-1.8.733-1.8 1.667V12h3.2l-.533 3.333H14V24c5.667-1.006 10-5.966 10-11.933C24 5.43 18.6 0 12 0S0 5.43 0 12.067z" fill="currentColor"></path>
    </g>
  </symbol>



  <symbol xmlns="http://www.w3.org/2000/svg" xmlns:xlink="http://www.w3.org/1999/xlink" aria-hidden="true" role="img" preserveAspectRatio="xMidYMid meet" viewBox="0 0 24 24" id="github">
    <g fill="none">
      <path fill-rule="evenodd" clip-rule="evenodd" d="M12 0C5.37 0 0 5.37 0 12c0 5.31 3.435 9.795 8.205 11.385c.6.105.825-.255.825-.57c0-.285-.015-1.23-.015-2.235c-3.015.555-3.795-.735-4.035-1.41c-.135-.345-.72-1.41-1.23-1.695c-.42-.225-1.02-.78-.015-.795c.945-.015 1.62.87 1.845 1.23c1.08 1.815 2.805 1.305 3.495.99c.105-.78.42-1.305.765-1.605c-2.67-.3-5.46-1.335-5.46-5.925c0-1.305.465-2.385 1.23-3.225c-.12-.3-.54-1.53.12-3.18c0 0 1.005-.315 3.3 1.23c.96-.27 1.98-.405 3-.405s2.04.135 3 .405c2.295-1.56 3.3-1.23 3.3-1.23c.66 1.65.24 2.88.12 3.18c.765.84 1.23 1.905 1.23 3.225c0 4.605-2.805 5.625-5.475 5.925c.435.375.81 1.095.81 2.22c0 1.605-.015 2.895-.015 3.3c0 .315.225.69.825.57A12.02 12.02 0 0 0 24 12c0-6.63-5.37-12-12-12z" fill="currentColor"/>
    </g>
  </symbol>




</svg>